<?xml version="1.0" encoding="UTF-8"?>
<svg version="1.1" xmlns="http://www.w3.org/2000/svg" width="349" height="126">
<path d="M0 0 C0 17.82 0 35.64 0 54 C-6.703125 56.64 -13.40625 59.28 -20.3125 62 C-22.42567627 62.8353125 -24.53885254 63.670625 -26.71606445 64.53125 C-28.38997848 65.18790353 -30.06404069 65.84417949 -31.73828125 66.5 C-32.60819702 66.84546875 -33.47811279 67.1909375 -34.37438965 67.546875 C-35.62246399 68.03414062 -35.62246399 68.03414062 -36.89575195 68.53125 C-37.97830009 68.95760742 -37.97830009 68.95760742 -39.0827179 69.39257812 C-41 70 -41 70 -44 70 C-44 63.73 -44 57.46 -44 51 C-34.76 51 -25.52 51 -16 51 C-16 42.42 -16 33.84 -16 25 C-24.91 25 -33.82 25 -43 25 C-43 22.69 -43 20.38 -43 18 C-33.6475203 13.54426577 -24.2167842 9.26943095 -14.75 5.0625 C-13.64277588 4.56580811 -12.53555176 4.06911621 -11.39477539 3.55737305 C-10.35184326 3.0962915 -9.30891113 2.63520996 -8.234375 2.16015625 C-6.83010254 1.53572632 -6.83010254 1.53572632 -5.39746094 0.89868164 C-3 0 -3 0 0 0 Z " fill="#003586" transform="translate(82,34)"/>
<path d="M0 0 C0 6.27 0 12.54 0 19 C-9.24 19 -18.48 19 -28 19 C-28 27.58 -28 36.16 -28 45 C-19.09 45 -10.18 45 -1 45 C-1 47.31 -1 49.62 -1 52 C-11.8619443 57.00109415 -22.73744561 61.96282904 -33.75 66.625 C-34.55284424 66.96724609 -35.35568848 67.30949219 -36.18286133 67.66210938 C-41.75479348 70 -41.75479348 70 -44 70 C-44 52.18 -44 34.36 -44 16 C-37.296875 13.36 -30.59375 10.72 -23.6875 8 C-21.57432373 7.1646875 -19.46114746 6.329375 -17.28393555 5.46875 C-15.61002152 4.81209647 -13.93595931 4.15582051 -12.26171875 3.5 C-11.39180298 3.15453125 -10.52188721 2.8090625 -9.62561035 2.453125 C-8.79356079 2.12828125 -7.96151123 1.8034375 -7.10424805 1.46875 C-6.02169991 1.04239258 -6.02169991 1.04239258 -4.9172821 0.60742188 C-3 0 -3 0 0 0 Z " fill="#003586" transform="translate(53,22)"/>
<path d="M0 0 C24.76179245 0 24.76179245 0 31.33984375 4.65625 C35.96763025 9.99687403 37.78279278 14.91490736 38 22 C37.5217146 27.44870236 35.45259702 31.7801592 32 36 C27.14752432 39.66411429 23.70922035 41.13099017 17.67578125 41.09765625 C16.28613159 41.09390991 16.28613159 41.09390991 14.8684082 41.09008789 C13.6949585 41.08098389 12.52150879 41.07187988 11.3125 41.0625 C7.579375 41.041875 3.84625 41.02125 0 41 C0 27.47 0 13.94 0 0 Z M12 11 C12 17.27 12 23.54 12 30 C19.23031931 30.18157103 19.23031931 30.18157103 24 26 C25.56935594 22.86128812 25.35201103 20.46144178 25 17 C23.1264113 13.9594012 23.1264113 13.9594012 20 12 C17.36 11.67 14.72 11.34 12 11 Z " fill="#322574" transform="translate(260,31)"/>
<path d="M0 0 C3.50625 -0.061875 7.0125 -0.12375 10.625 -0.1875 C11.71893066 -0.21481201 12.81286133 -0.24212402 13.93994141 -0.27026367 C21.10087989 -0.33135038 25.35301488 0.69827381 30.875 5.5 C33.70525822 9.16376469 33.62542176 12.89657988 33.44921875 17.38671875 C32.84657905 20.89250968 31.01105109 23.11749344 29 26 C29.82514041 30.8476999 32.56935624 34.78688415 35 39 C35 39.66 35 40.32 35 41 C30.38 41 25.76 41 21 41 C19.53515625 38.16796875 18.0703125 35.3359375 16.60546875 32.50390625 C15.18581516 29.71308782 15.18581516 29.71308782 12 29 C12 32.96 12 36.92 12 41 C8.04 41 4.08 41 0 41 C0 27.47 0 13.94 0 0 Z M12 11 C12 13.64 12 16.28 12 19 C16.7897321 19.23428313 16.7897321 19.23428313 21 17 C20.62095792 13.70924004 20.62095792 13.70924004 19 11 C16.66702567 10.95907063 14.33294775 10.95758277 12 11 Z " fill="#322574" transform="translate(222,31)"/>
<path d="M0 0 C3.96 0 7.92 0 12 0 C12 4.95 12 9.9 12 15 C15.63 15 19.26 15 23 15 C23 10.05 23 5.1 23 0 C26.96 0 30.92 0 35 0 C35 13.53 35 27.06 35 41 C31.04 41 27.08 41 23 41 C23 36.05 23 31.1 23 26 C19.37 26 15.74 26 12 26 C12 30.95 12 35.9 12 41 C8.04 41 4.08 41 0 41 C0 27.47 0 13.94 0 0 Z " fill="#322574" transform="translate(140,31)"/>
<path d="M0 0 C3.55249855 4.08537333 4 5.45593763 4 11 C0.04 11 -3.92 11 -8 11 C-8.33 10.34 -8.66 9.68 -9 9 C-10.65 9 -12.3 9 -14 9 C-14 9.66 -14 10.32 -14 11 C-12.80503906 11.36351562 -12.80503906 11.36351562 -11.5859375 11.734375 C-0.72340426 15.17021277 -0.72340426 15.17021277 4 19 C5.98363675 22.9672735 5.54751158 27.6868254 5 32 C3.0719387 35.9255328 0.05292668 38.43361759 -4 40 C-9.98360009 40.62678393 -16.69418235 41.20417647 -22.1875 38.375 C-25.31166823 35.7368135 -26.66350739 33.8522434 -28 30 C-28 28.35 -28 26.7 -28 25 C-23.71 25 -19.42 25 -15 25 C-14.67 25.99 -14.34 26.98 -14 28 C-12.08333333 28.83333333 -12.08333333 28.83333333 -10 29 C-9.34 28.67 -8.68 28.34 -8 28 C-8.33 27.01 -8.66 26.02 -9 25 C-11.85703486 23.96371721 -11.85703486 23.96371721 -15.25 23.1875 C-22.80092872 20.97443966 -22.80092872 20.97443966 -25.3125 18.375 C-27.61104262 13.77791475 -28.00625229 10.03944237 -27 5 C-25.1696384 1.06512573 -22.6477885 -0.73608617 -18.625 -2.375 C-11.86843386 -3.5399252 -6.02142383 -3.50052405 0 0 Z " fill="#322574" transform="translate(131,33)"/>
<path d="M0 0 C1.65322266 0.01740234 1.65322266 0.01740234 3.33984375 0.03515625 C4.44457031 0.04417969 5.54929688 0.05320312 6.6875 0.0625 C7.54214844 0.07410156 8.39679688 0.08570312 9.27734375 0.09765625 C11.55817313 5.77508642 13.83677563 11.45340309 16.11328125 17.13256836 C16.88870442 19.06608475 17.66474518 20.99935357 18.44140625 22.93237305 C19.55499544 25.70427268 20.66639045 28.47704306 21.77734375 31.25 C22.12732422 32.11978989 22.47730469 32.98957977 22.83789062 33.88572693 C23.15822266 34.68648148 23.47855469 35.48723602 23.80859375 36.31225586 C24.09283203 37.02063095 24.37707031 37.72900604 24.66992188 38.45884705 C25.27734375 40.09765625 25.27734375 40.09765625 25.27734375 41.09765625 C20.65734375 41.09765625 16.03734375 41.09765625 11.27734375 41.09765625 C10.61734375 39.44765625 9.95734375 37.79765625 9.27734375 36.09765625 C4.98734375 36.09765625 0.69734375 36.09765625 -3.72265625 36.09765625 C-4.71265625 38.57265625 -4.71265625 38.57265625 -5.72265625 41.09765625 C-10.01265625 41.09765625 -14.30265625 41.09765625 -18.72265625 41.09765625 C-16.48554339 33.03309904 -13.55699168 25.32833732 -10.42431641 17.58081055 C-9.58739672 15.50976802 -8.75810613 13.43578384 -7.9296875 11.36132812 C-3.4163184 0.12253653 -3.4163184 0.12253653 0 0 Z M2.27734375 15.09765625 C1.28734375 18.39765625 0.29734375 21.69765625 -0.72265625 25.09765625 C1.58734375 25.09765625 3.89734375 25.09765625 6.27734375 25.09765625 C5.28734375 21.79765625 4.29734375 18.49765625 3.27734375 15.09765625 C2.94734375 15.09765625 2.61734375 15.09765625 2.27734375 15.09765625 Z " fill="#322574" transform="translate(195.72265625,30.90234375)"/>
<path d="M0 0 C1.65322266 0.01740234 1.65322266 0.01740234 3.33984375 0.03515625 C4.44457031 0.04417969 5.54929687 0.05320312 6.6875 0.0625 C7.54214844 0.07410156 8.39679688 0.08570312 9.27734375 0.09765625 C11.55817313 5.77508642 13.83677563 11.45340309 16.11328125 17.13256836 C16.88870442 19.06608475 17.66474518 20.99935357 18.44140625 22.93237305 C19.55499544 25.70427268 20.66639045 28.47704306 21.77734375 31.25 C22.12732422 32.11978989 22.47730469 32.98957977 22.83789062 33.88572693 C23.15822266 34.68648148 23.47855469 35.48723602 23.80859375 36.31225586 C24.09283203 37.02063095 24.37707031 37.72900604 24.66992188 38.45884705 C25.27734375 40.09765625 25.27734375 40.09765625 25.27734375 41.09765625 C20.65734375 41.09765625 16.03734375 41.09765625 11.27734375 41.09765625 C10.94734375 39.11765625 10.61734375 37.13765625 10.27734375 35.09765625 C5.65734375 35.09765625 1.03734375 35.09765625 -3.72265625 35.09765625 C-4.38265625 37.07765625 -5.04265625 39.05765625 -5.72265625 41.09765625 C-10.01265625 41.09765625 -14.30265625 41.09765625 -18.72265625 41.09765625 C-15.32833411 31.18091116 -11.7210762 21.36242394 -7.91015625 11.59765625 C-7.51320557 10.57663818 -7.11625488 9.55562012 -6.70727539 8.50366211 C-6.33465576 7.55499268 -5.96203613 6.60632324 -5.578125 5.62890625 C-5.24449951 4.77876953 -4.91087402 3.92863281 -4.56713867 3.05273438 C-3.29965256 0.11835196 -3.29965256 0.11835196 0 0 Z M2.27734375 16.09765625 C1.61734375 19.06765625 0.95734375 22.03765625 0.27734375 25.09765625 C2.25734375 25.09765625 4.23734375 25.09765625 6.27734375 25.09765625 C5.28734375 22.12765625 4.29734375 19.15765625 3.27734375 16.09765625 C2.94734375 16.09765625 2.61734375 16.09765625 2.27734375 16.09765625 Z " fill="#322574" transform="translate(313.72265625,30.90234375)"/>
<path d="M0 0 C2.475 0.495 2.475 0.495 5 1 C5.66 1.99 6.32 2.98 7 4 C7.66 2.68 8.32 1.36 9 0 C10.32 0 11.64 0 13 0 C13 4.62 13 9.24 13 14 C11.783125 13.814375 10.56625 13.62875 9.3125 13.4375 C5.6552415 12.87961311 3.91389179 13.21722164 0 14 C0 9.38 0 4.76 0 0 Z " fill="#304384" transform="translate(233,81)"/>
<path d="M0 0 C1.671875 1.234375 1.671875 1.234375 3 3 C3.328125 5.2265625 3.328125 5.2265625 3.25 7.625 C3.23453125 8.42164062 3.2190625 9.21828125 3.203125 10.0390625 C3 12 3 12 2 13 C2.66 13.33 3.32 13.66 4 14 C4 14.99 4 15.98 4 17 C0.73280645 17.39206323 -1.88216635 17.6546965 -4.80078125 15.9453125 C-7.2072126 13.82030152 -8.74747088 12.09912266 -9.4765625 8.92578125 C-9.59691587 5.96618246 -9.33663452 3.59846138 -7.875 1 C-5.10184376 -0.47901666 -3.08815875 -0.38601984 0 0 Z M-5 4 C-5 5.98 -5 7.96 -5 10 C-3.68 10 -2.36 10 -1 10 C-1 8.02 -1 6.04 -1 4 C-2.32 4 -3.64 4 -5 4 Z " fill="#304384" transform="translate(191,81)"/>
<path d="M0 0 C2.475 0.495 2.475 0.495 5 1 C5.33 1.66 5.66 2.32 6 3 C6.33 2.01 6.66 1.02 7 0 C8.32 0 9.64 0 11 0 C11 4.62 11 9.24 11 14 C9.68 14 8.36 14 7 14 C6.34 13.01 5.68 12.02 5 11 C4.67 11.99 4.34 12.98 4 14 C2.68 14 1.36 14 0 14 C0 9.38 0 4.76 0 0 Z " fill="#304384" transform="translate(262,81)"/>
<path d="M0 0 C1.32 0 2.64 0 4 0 C4.66 1.32 5.32 2.64 6 4 C6.33 2.68 6.66 1.36 7 0 C8.32 0 9.64 0 11 0 C11 4.62 11 9.24 11 14 C9.35 14 7.7 14 6 14 C5.34 12.68 4.68 11.36 4 10 C3.67 11.32 3.34 12.64 3 14 C2.01 14 1.02 14 0 14 C0 9.38 0 4.76 0 0 Z " fill="#304384" transform="translate(314,81)"/>
<path d="M0 0 C1.32 0 2.64 0 4 0 C4.33 2.97 4.66 5.94 5 9 C5.66 9 6.32 9 7 9 C7.33 6.03 7.66 3.06 8 0 C9.32 0 10.64 0 12 0 C12.08153933 1.58246707 12.13943557 3.16616273 12.1875 4.75 C12.22230469 5.63171875 12.25710937 6.5134375 12.29296875 7.421875 C11.94309413 10.50077164 11.17032143 11.81453679 9 14 C5.87376745 14.31900332 3.82883747 14.41441874 1 13 C-0.00496852 9.98509443 -0.10335303 7.95818308 -0.0625 4.8125 C-0.05347656 3.91144531 -0.04445312 3.01039062 -0.03515625 2.08203125 C-0.02355469 1.39496094 -0.01195312 0.70789063 0 0 Z " fill="#304384" transform="translate(197,81)"/>
<path d="M0 0 C3 0.25 3 0.25 5 2.25 C4.67 2.91 4.34 3.57 4 4.25 C2.68 4.25 1.36 4.25 0 4.25 C0.639375 4.45625 1.27875 4.6625 1.9375 4.875 C4 6.25 4 6.25 4.875 9.25 C4.936875 10.735 4.936875 10.735 5 12.25 C3 14.25 3 14.25 -0.5 14.5625 C-2.2325 14.4078125 -2.2325 14.4078125 -4 14.25 C-4.66 13.26 -5.32 12.27 -6 11.25 C-3 9.25 -3 9.25 -2 9.25 C-2.99 8.59 -3.98 7.93 -5 7.25 C-5.3125 4.75 -5.3125 4.75 -5 2.25 C-3 0.25 -3 0.25 0 0 Z " fill="#304384" transform="translate(109,80.75)"/>
<path d="M0 0 C1.134375 0.020625 2.26875 0.04125 3.4375 0.0625 C3.4375 1.3825 3.4375 2.7025 3.4375 4.0625 C2.1175 3.7325 0.7975 3.4025 -0.5625 3.0625 C-0.5625 3.7225 -0.5625 4.3825 -0.5625 5.0625 C0.05625 5.18625 0.675 5.31 1.3125 5.4375 C3.4375 6.0625 3.4375 6.0625 5.4375 8.0625 C5.1875 10.625 5.1875 10.625 4.4375 13.0625 C1.69844655 14.43202673 -0.53337332 14.18871361 -3.5625 14.0625 C-4.2225 13.7325 -4.8825 13.4025 -5.5625 13.0625 C-4.9025 11.7425 -4.2425 10.4225 -3.5625 9.0625 C-2.9025 9.0625 -2.2425 9.0625 -1.5625 9.0625 C-2.5525 8.4025 -3.5425 7.7425 -4.5625 7.0625 C-4.8125 4 -4.8125 4 -4.5625 1.0625 C-3.5625 0.0625 -3.5625 0.0625 0 0 Z " fill="#304384" transform="translate(293.5625,80.9375)"/>
<path d="M0 0 C2.97 0 5.94 0 9 0 C9 0.99 9 1.98 9 3 C7.35 3 5.7 3 4 3 C4 3.66 4 4.32 4 5 C5.32 5 6.64 5 8 5 C8 5.99 8 6.98 8 8 C6.68 8 5.36 8 4 8 C4 8.66 4 9.32 4 10 C5.65 10 7.3 10 9 10 C9 11.32 9 12.64 9 14 C6.03 14 3.06 14 0 14 C0 9.38 0 4.76 0 0 Z " fill="#304384" transform="translate(250,81)"/>
<path d="M0 0 C2.97 0 5.94 0 9 0 C9 0.99 9 1.98 9 3 C7.35 3 5.7 3 4 3 C4 3.66 4 4.32 4 5 C5.32 5 6.64 5 8 5 C8 5.99 8 6.98 8 8 C6.68 8 5.36 8 4 8 C4 8.66 4 9.32 4 10 C5.65 10 7.3 10 9 10 C9 11.32 9 12.64 9 14 C6.03 14 3.06 14 0 14 C0 9.38 0 4.76 0 0 Z " fill="#304384" transform="translate(170,81)"/>
<path d="M0 0 C2.97 0 5.94 0 9 0 C9 0.99 9 1.98 9 3 C7.35 3 5.7 3 4 3 C4 3.66 4 4.32 4 5 C5.32 5 6.64 5 8 5 C8 5.99 8 6.98 8 8 C6.68 8 5.36 8 4 8 C4 8.66 4 9.32 4 10 C5.65 10 7.3 10 9 10 C9 11.32 9 12.64 9 14 C6.03 14 3.06 14 0 14 C0 9.38 0 4.76 0 0 Z " fill="#304384" transform="translate(141,81)"/>
<path d="M0 0 C2.97 0 5.94 0 9 0 C9 0.99 9 1.98 9 3 C7.35 3 5.7 3 4 3 C4 3.66 4 4.32 4 5 C5.32 5 6.64 5 8 5 C8 5.99 8 6.98 8 8 C6.68 8 5.36 8 4 8 C4 8.66 4 9.32 4 10 C5.65 10 7.3 10 9 10 C9 11.32 9 12.64 9 14 C6.03 14 3.06 14 0 14 C0 9.38 0 4.76 0 0 Z " fill="#304384" transform="translate(129,81)"/>
<path d="M0 0 C0.66 0.33 1.32 0.66 2 1 C1.67 1.99 1.34 2.98 1 4 C-0.98 4 -2.96 4 -5 4 C-5 5.98 -5 7.96 -5 10 C-3.35 9.67 -1.7 9.34 0 9 C0.66 10.32 1.32 11.64 2 13 C-0.79870027 14.39935013 -2.90498792 14.25265405 -6 14 C-7.875 13 -7.875 13 -9 11 C-9.53967465 7.40216898 -9.68523932 4.21820324 -7.875 1 C-5.1715264 -0.44185259 -3.01217617 -0.25635542 0 0 Z " fill="#304384" transform="translate(337,81)"/>
<path d="M0 0 C6.0546875 -0.1953125 6.0546875 -0.1953125 8 0 C10 2 10 2 10.125 5.125 C10.08375 6.07375 10.0425 7.0225 10 8 C7.35261084 9.4606285 6.10551666 10 3 10 C3 11.32 3 12.64 3 14 C2.01 14 1.02 14 0 14 C0 9.38 0 4.76 0 0 Z M3 3 C3 3.99 3 4.98 3 6 C3.99 6 4.98 6 6 6 C5.67 5.01 5.34 4.02 5 3 C4.34 3 3.68 3 3 3 Z " fill="#304384" transform="translate(220,81)"/>
<path d="M0 0 C1.32 0 2.64 0 4 0 C4 3.3 4 6.6 4 10 C5.98 10 7.96 10 10 10 C10 11.32 10 12.64 10 14 C6.7 14 3.4 14 0 14 C0 9.38 0 4.76 0 0 Z " fill="#304384" transform="translate(153,81)"/>
<path d="M0 0 C3.63 0 7.26 0 11 0 C11 0.99 11 1.98 11 3 C9.68 3 8.36 3 7 3 C7 6.63 7 10.26 7 14 C5.68 14 4.36 14 3 14 C3 10.37 3 6.74 3 3 C2.01 3 1.02 3 0 3 C0 2.01 0 1.02 0 0 Z " fill="#304384" transform="translate(276,81)"/>
<path d="M0 0 C3.63 0 7.26 0 11 0 C11 0.99 11 1.98 11 3 C10.01 3 9.02 3 8 3 C8 6.63 8 10.26 8 14 C6.68 14 5.36 14 4 14 C4 10.37 4 6.74 4 3 C2.68 3 1.36 3 0 3 C0 2.01 0 1.02 0 0 Z " fill="#304384" transform="translate(115,81)"/>
<path d="M0 0 C1.32 0 2.64 0 4 0 C4 4.62 4 9.24 4 14 C2.68 14 1.36 14 0 14 C0 9.38 0 4.76 0 0 Z " fill="#304384" transform="translate(306,81)"/>
<path d="M0 0 C1.32 0 2.64 0 4 0 C4 4.62 4 9.24 4 14 C2.68 14 1.36 14 0 14 C0 9.38 0 4.76 0 0 Z " fill="#304384" transform="translate(212,81)"/>
</svg>
